<?xml version="1.0" encoding="UTF-8"?>
<svg id="Camada_1" data-name="Camada 1" xmlns="http://www.w3.org/2000/svg" viewBox="0 0 210.87 146.04">
  <defs>
    <style>
      .cls-1 {
        fill: #ffd100;
      }

      .cls-1, .cls-2, .cls-3 {
        stroke-width: 0px;
      }

      .cls-2 {
        fill: #fff;
      }

      .cls-3 {
        fill: #2d3277;
      }
    </style>
  </defs>
  <g id="Icon_Mercado_Livre" data-name="Icon Mercado Livre">
    <path id="path2" class="cls-3" d="m205.93,68.46c-.3-36.05-44.95-65.05-99.8-65.05h-1.3c-17.76,0-35.36,3.33-51.88,9.83C25.17,24.32,6.25,43.98,4.92,66.52v10.27c1.08,17.97,10.81,34.26,27.65,46.18,18.31,12.95,43.13,19.66,71.84,19.66h1.55c29.49-.25,54.8-7.5,73.16-20.96,17.45-12.83,27.03-30.43,26.84-49.55l-.02-3.66Z"/>
    <path id="path4" class="cls-2" d="m95.53,96.5c.9-.38,1.85-.6,2.83-.66,1.06-.2,2.16-.16,3.2.12,1.05.27,2.02.77,2.85,1.47s1.5,1.56,1.96,2.54c.46.98.7,2.05.7,3.13s-.24,2.15-.7,3.13c-.46.98-1.13,1.85-1.96,2.54-.83.69-1.8,1.19-2.85,1.47s-2.14.31-3.2.12h0c-1.86.01-3.65-.69-5-1.97-1.35-1.28-2.15-3.03-2.23-4.89,0-1.65-.96-1.89-1.47-1.89-.26.02-.51.09-.75.2-.23.12-.44.28-.6.48-.87.94-2.07,1.51-3.34,1.6-.8,0-1.58-.17-2.31-.49-1.24-.33-2.32-1.1-3.04-2.17-.71-1.07-1.02-2.36-.85-3.63.06-.25.07-.51,0-.77-.06-.25-.18-.49-.35-.68-.23-.2-.51-.34-.81-.39-.23-.03-.47,0-.69.06-.22.07-.43.18-.61.33-1.02.87-2.26,1.44-3.59,1.65-.64-.02-1.28-.14-1.89-.34-1.75-.55-3.24-1.73-4.18-3.3-.94-1.58-1.27-3.44-.93-5.25.07-.25.07-.52-.02-.77s-.24-.47-.45-.63c-.64-.39-1.25.2-1.65.59-.45.44-.98.77-1.58.96-.59.2-1.22.25-1.84.17-1.48-.11-2.87-.75-3.9-1.81-1.04-1.06-1.65-2.46-1.72-3.94,0-.72.13-1.44.4-2.11s.67-1.28,1.18-1.8c.51-.52,1.11-.93,1.78-1.21.67-.28,1.38-.43,2.1-.44,1.27-.16,2.55.16,3.59.9,1.04.74,1.76,1.85,2.02,3.1v.34c0,.12.15,1.11.71,1.28.57.17,1.03-.39,1.3-.81.05-.1.12-.19.2-.27l.17-.22c.69-.99,1.63-1.77,2.73-2.26,1.1-.49,2.32-.66,3.51-.5.83.02,1.66.14,2.46.37,1.17.41,2.16,1.2,2.84,2.23.68,1.03,1,2.26.92,3.49,0,.36.13.71.38.97s.59.42.95.43h0c.22-.02.44-.08.64-.18.2-.1.37-.24.52-.41.52-.64,1.17-1.17,1.9-1.56.73-.39,1.53-.63,2.36-.7,1.08,0,2.14.24,3.12.69,5.28,2.21,2.9,8.97,2.88,9.04-.32.79-.84,2.11.27,2.83l.22.12h.44c.41-.03.81-.13,1.18-.3h.22Z"/>
    <path id="path6" class="cls-2" d="m200.47,60.67c-14.11,3.29-27.89,7.9-41.14,13.76-9.51-8.16-31.51-27.03-37.45-31.33-2.38-1.96-5.08-3.5-7.99-4.55-1.3-.41-2.65-.61-4.01-.59-1.67.05-3.33.35-4.92.88-4.24,1.78-8.14,4.27-11.53,7.37l-.22.17c-3.37,2.73-6.83,5.53-9.39,6.12-1.14.27-2.3.41-3.47.42h0c-2.19.17-4.37-.47-6.12-1.79.07-.15.16-.29.27-.42l8.28-9.09c6.41-6.51,12.46-12.66,26.47-13.1h.69c6.39.18,12.67,1.62,18.51,4.23,8.06,3.91,16.9,5.96,25.85,5.97,9.6-.23,19.03-2.53,27.65-6.76,9.54,8.23,16.17,18.01,18.51,28.7Z"/>
    <path id="path8" class="cls-1" d="m104.87,7.88h1.25c13.24-.04,26.43,1.76,39.17,5.36l.84.25,1.72.54c10.5,3.22,20.41,8.1,29.37,14.45-7.28,3.27-15.15,5.05-23.13,5.23h-.32c-8.08-.06-16.04-1.93-23.3-5.48-6.45-2.88-13.39-4.48-20.45-4.72h-1.08c-8.55-.05-16.84,2.94-23.37,8.45-3.94.26-7.83,1.01-11.58,2.24-2.56.88-5.23,1.42-7.94,1.6h-3.22c-9.69-1.62-19.2-4.15-28.41-7.54C52.57,15.4,78.13,8.03,104.87,7.88Z"/>
    <path id="path10" class="cls-2" d="m29.89,31.69c12.73,5.09,27.48,8.7,31.95,8.95h.98c1.03,0,2.09,0,3.15.12,3.19-.17,6.34-.77,9.36-1.79,1.25-.37,2.46-.71,3.71-1.03l-.17.2-8.4,9.24c-.72.67-1.23,1.54-1.45,2.5-.22.96-.15,1.96.2,2.88.53,1.13,1.39,2.08,2.46,2.73,2.86,1.62,6.11,2.42,9.39,2.31,1.26,0,2.51-.14,3.74-.42,3.66-.86,7.37-3.88,11.43-7.13,3.19-2.81,6.84-5.05,10.79-6.61.95-.25,1.94-.39,2.92-.42h.74c3.01.48,5.82,1.8,8.11,3.81,6.66,4.92,35.12,29.49,38.41,32.19.54.51.97,1.14,1.26,1.83.29.69.43,1.43.41,2.18-.06.71-.28,1.4-.66,2.01-.38.61-.89,1.12-1.51,1.48-1.1.75-2.38,1.16-3.71,1.2-1.11,0-2.2-.31-3.15-.88l-.79-.69c-2.63-2.46-10.62-9.51-13.91-12.29-.58-.63-1.38-1.03-2.24-1.11-.25,0-.49.05-.71.16s-.42.26-.57.46c-.74.93-.34,2.24.96,3.32l12.48,12.29c.81.78,1.34,1.79,1.52,2.9.05.94-.18,1.87-.64,2.68-.47.81-1.16,1.48-1.99,1.91-1.18.85-2.58,1.34-4.03,1.4-1.08,0-2.14-.31-3.05-.88l-1.92-1.84c-3.22-3.12-6.56-6.34-9.02-8.36-.6-.6-1.37-.98-2.21-1.08h0c-.23,0-.46.04-.67.13-.21.09-.4.23-.56.41-.34.39-.79,1.28.2,2.46.2.26.42.51.66.74l9.09,10.05c.44.47.71,1.08.75,1.73.04.65-.15,1.29-.53,1.81l-.27.37c-.27.3-.54.54-.79.76-1.15.86-2.57,1.31-4.01,1.28-.37.04-.74.04-1.11,0-1.03-.17-1.33-.42-1.43-.54l-.3-.3c-2.58-2.69-5.3-5.25-8.16-7.64-.56-.58-1.31-.96-2.11-1.06h0c-.24,0-.47.06-.69.17-.22.1-.41.25-.57.42-.76.84-.42,2.09.86,3.29l6.86,7.62c-.17.27-.93,1.11-3.56,1.45-.34.02-.67.02-1.01,0-2.34-.13-4.62-.77-6.68-1.87.59-1.46.89-3.02.88-4.6-.03-3.17-1.3-6.2-3.54-8.44-2.24-2.24-5.26-3.52-8.43-3.56.13-2.15-.4-4.3-1.53-6.13-1.13-1.84-2.8-3.28-4.78-4.14-1.55-.67-3.22-1.03-4.92-1.06-1.09,0-2.18.17-3.22.52-1.29-2.17-3.34-3.79-5.75-4.55-1.38-.51-2.85-.75-4.33-.71-2.24-.01-4.43.65-6.29,1.89-.96-1.06-2.13-1.91-3.44-2.49-1.31-.58-2.73-.88-4.16-.87h0c-2.55.01-5.01.98-6.88,2.7-2.92-2.06-12.71-7.77-37.26-13.12-1.11-.25-3.51-.91-5.53-1.47,2.06-10.72,8.8-20.89,19.32-29.47Z"/>
    <path id="path12" class="cls-1" d="m201.3,72.42c0,.8-.1,1.62-.29,2.46-2.16,13.93-11.62,27.03-27.23,37.09-18.06,11.77-42.17,18.38-67.85,18.6h-1.3c-52.42,0-95.06-27.03-95.33-60.58,0-1.06,0-2.24.15-3.54l5.33,1.23c24.18,5.16,33.23,10.62,35.49,12.29-.4,1.13-.6,2.32-.59,3.51.02,2.73,1.12,5.34,3.06,7.27,1.94,1.92,4.56,3,7.29,3,.47.04.93.04,1.4,0,.49,1.91,1.44,3.67,2.78,5.12,1.33,1.45,3.01,2.55,4.87,3.19,1.77.7,3.69.87,5.55.49,1.28,2.56,3.51,4.51,6.22,5.46,1.32.52,2.72.78,4.13.79.84-.06,1.66-.22,2.46-.49.98,2.06,2.52,3.8,4.45,5.01,1.93,1.22,4.16,1.87,6.44,1.87h0c3.1-.05,6.07-1.27,8.31-3.42,2.96,1.6,6.25,2.52,9.61,2.68.52,0,1.04-.04,1.55-.12,1.35-.05,2.67-.39,3.88-.99,1.2-.61,2.26-1.47,3.1-2.52l.22-.32c.92.23,1.86.36,2.8.37,2.41-.08,4.73-.94,6.61-2.46,1.83-1.28,3.18-3.14,3.83-5.28h1.6c2.42-.06,4.77-.82,6.76-2.21,1.43-.84,2.63-2.02,3.49-3.43.86-1.42,1.35-3.02,1.43-4.68.51.04,1.02.04,1.52,0,2.26-.04,4.47-.74,6.34-2.02,1.27-.79,2.33-1.88,3.1-3.16.77-1.28,1.22-2.73,1.33-4.22.11-1.82-.27-3.64-1.11-5.26,12.46-5.11,25.3-9.22,38.41-12.29,0,1.08.2,2.14.2,3.24s.1,2.29.02,3.32h0Z"/>
  </g>
</svg>