<?xml version="1.0" encoding="UTF-8"?>
<svg id="Camada_1" data-name="Camada 1" xmlns="http://www.w3.org/2000/svg" viewBox="0 0 433.04 433.06">
  <defs>
    <style>
      .cls-1 {
        fill: #fff;
        stroke-width: 0px;
      }
    </style>
  </defs>
  <path class="cls-1" d="m219.43,8.53C102.45,6.95,6.95,102.45,8.53,219.43c1.56,112.19,92.91,203.54,205.1,205.1,117,1.6,212.48-93.9,210.88-210.88-1.54-112.21-92.89-203.56-205.08-205.12Zm126.42,327.25c-1.5,1.62-4.03,1.72-5.65.22-.18-.17-.34-.35-.49-.54-8.94-11.7-19.9-21.72-32.35-29.59-25.46-16.34-57.72-25.34-90.83-25.34s-65.37,9-90.83,25.34c-12.45,7.86-23.41,17.88-32.35,29.58-1.32,1.77-3.83,2.13-5.6.81-.19-.15-.38-.31-.54-.49-29.34-31.68-45.97-73.07-46.68-116.24-1.63-97.31,78.22-178.76,175.57-179s176.43,78.81,176.43,176c.03,44.21-16.64,86.81-46.68,119.25Z"/>
  <path class="cls-1" d="m216.53,104.53c-19.72,0-37.55,7.39-50.22,20.82s-19,32-17.57,51.93c2.9,39.25,33.31,71.25,67.79,71.25s64.83-32,67.79-71.24c1.48-19.74-4.8-38.14-17.68-51.82-12.72-13.5-30.52-20.94-50.11-20.94Z"/>
</svg>