<?xml version="1.0" encoding="UTF-8"?>
<svg id="Camada_1" data-name="Camada 1" xmlns="http://www.w3.org/2000/svg" viewBox="0 0 502.62 402.84">
  <defs>
    <style>
      .cls-1 {
        stroke: #fff;
        stroke-miterlimit: 10;
        stroke-width: 12px;
      }
    </style>
  </defs>
  <path class="cls-1" d="m496.77,377.72c-2.05,4.32-3.9,8.7-7.39,12.2-10.27,10.3-26.48,11.13-37.23,1.33-7.31-6.66-14.13-13.87-21.13-20.86-11.19-11.17-22.47-22.24-33.45-33.61-2.98-3.09-5.06-3.46-8.83-1.21-18.08,10.77-37.87,16.07-58.82,16.38-58.92.88-110.67-41.07-122.33-98.82-13.29-65.86,30.01-131.13,95.92-144.6,66.57-13.6,131.94,29.87,145.2,96.79,5.91,29.85.96,58.11-14.07,84.52-1.98,3.48-1.59,5.53,1.15,8.23,16.36,16.15,32.51,32.53,48.86,48.69,5.18,5.12,9.66,10.61,12.13,17.54v13.41Zm-85.31-148.55c.94-41.19-31.88-83.42-83.04-83.69-50.4-.27-84.14,41.39-83.72,83.59.47,46.38,37.03,83.31,83.38,83.33,46.39.02,83.28-36.81,83.38-83.22Z"/>
  <path class="cls-1" d="m124.39,145.4c0,42.94,0,85.89,0,128.83,0,9.06-1.85,10.89-10.95,10.9-9.42.01-18.84.04-28.26-.01-7.16-.04-9.71-2.56-10.02-9.77-.06-1.43-.03-2.87-.03-4.31,0-83.81,0-167.63,0-251.44,0-1.76-.05-3.52.06-5.27.48-7.11,3.09-9.57,10.3-9.6,9.74-.04,19.48-.05,29.21,0,7.22.04,9.67,2.55,9.68,9.91.02,43.58,0,87.17.01,130.75Z"/>
  <path class="cls-1" d="m5.87,144.85c0-43.11,0-86.22,0-129.33,0-8.61,2.16-10.77,10.73-10.8,5.11-.02,10.22-.09,15.33.03,5.92.14,8.66,2.94,8.97,8.9.06,1.12.03,2.23.03,3.35,0,85.26,0,170.52,0,255.78,0,1.6.07,3.21-.11,4.78-.57,4.9-3.23,7.41-8.22,7.51-6.06.12-12.14.12-18.2.01-5.91-.1-8.43-2.6-8.48-8.53-.09-11.34-.03-22.67-.03-34.01,0-32.57,0-65.14,0-97.72Z"/>
  <path class="cls-1" d="m162.09,145c0-42.93,0-85.87,0-128.8,0-9.43,2.07-11.46,11.58-11.47,1.76,0,3.52-.06,5.27.04,5.02.29,7.56,2.57,8.26,7.58.27,1.88.21,3.82.21,5.73,0,84.59,0,169.19,0,253.78,0,2.07.03,4.17-.29,6.2-.72,4.54-3.3,7.12-8.12,7.07-2.71-.03-5.43.06-8.14,0-6.02-.16-8.68-2.78-8.73-8.92-.1-10.85-.03-21.71-.03-32.56,0-32.88,0-65.76,0-98.64Z"/>
  <path class="cls-1" d="m215.51,149.45c-1.28-1.56-.71-3.38-.71-5.04-.04-42.95-.03-85.9-.02-128.85,0-8.54,2.27-10.82,10.76-10.83,12.13-.02,24.27-.04,36.4,0,7.54.03,9.97,2.49,9.98,10.12.02,27.94-.07,55.88.1,83.82.02,4-1.5,5.94-4.92,7.63-19.22,9.49-35.26,22.89-48.2,40-.9,1.2-1.48,2.87-3.39,3.15Z"/>
  <path class="cls-1" d="m412.47,65.53c0,16.43.01,32.86-.03,49.3,0,1.51.63,3.55-1.19,4.28-1.44.58-2.56-1.01-3.69-1.82-8.88-6.32-18.3-11.66-28.48-15.55-3.17-1.21-4.33-3.04-4.32-6.42.11-26.96.03-53.92.08-80.89.01-6.92,2.75-9.61,9.54-9.69,6.06-.07,12.13-.06,18.19,0,6.76.07,9.51,2.6,9.79,9.58.27,6.69.1,13.4.11,20.1,0,10.37,0,20.74,0,31.11Z"/>
  <path class="cls-1" d="m360.99,52.4c0,12.6-.12,25.19.07,37.78.07,4.43-1.4,5.86-5.65,4.44-1.65-.55-3.41-.87-5.15-1.03-10.97-1.04-8.83-1.9-8.87-10.52-.11-22.64-.06-45.28-.02-67.92.02-7.86,3.01-10.66,10.81-10.43,5.92.18,8.75,2.9,8.79,8.92.09,12.91.03,25.83.03,38.74Z"/>
  <path class="cls-1" d="m321.71,50.77c0,11.97-.13,23.94.07,35.91.07,4.05-1.25,5.66-5.4,5.88-9.65.51-9.65.69-9.65-8.98,0-21.86,0-43.73,0-65.59,0-1.28-.01-2.55,0-3.83.1-5.8,2.81-9.25,7.33-9.33,4.67-.08,7.59,3.5,7.62,9.56.05,8.94.02,17.87.02,26.81,0,3.19,0,6.38,0,9.58Z"/>
</svg>